# xmcd
#
# Track frame offsets: 
#        150
#        2720
#        20897
#        49242
#        66492
#        87595
#        111232
#        143060
#        179947
#        207535
#        231080
#        251900
#        280207
#        309032
#
# Disc length: 4366 seconds
#
# Revision: 2
# Processed by: cddbd v1.5.2PL0 Copyright (c) Steve Scherf et al.
# Submitted via: ExactAudioCopy v0.95b4
#
DISCID=d9110c0e
DTITLE=Various Artist - Bossa House N' Breaks Deluxe FreeTEMPO
DYEAR=2004
DGENRE=House
TTITLE0=FreeTEMPO - Tuning
TTITLE1=Ben Human - Scott Air
TTITLE2=Mr Hermano - Caxixi (Ka-Shi-Shi)
TTITLE3=DJ Rodriguez - Bota Pra Quebar (Original Vocal Version)
TTITLE4=Sandboy - Viver
TTITLE5=KYOTO JAZZ MASSIVE - Eclipse
TTITLE6=The Soul Creatures - Run Out Of Time
TTITLE7=Bah Samba - Tired Little One
TTITLE8=A Hundred Birds - Batonga (Main Mix)
TTITLE9=Kadregah Feat. Leisa T Johnson - Take U Home
TTITLE10=Toy Division - Budapest Resonannce
TTITLE11=Mr Hermano - Mr Hermano
TTITLE12=Thick Dick - Insatiable (Rasmus Favers Brazillian Edit)
TTITLE13=Ebony Angel - The Resurrecton (Rainforest Rhapsody)
EXTD=YEAR: 2004
EXTT0=
EXTT1=
EXTT2=
EXTT3=
EXTT4=
EXTT5=
EXTT6=
EXTT7=
EXTT8=
EXTT9=
EXTT10=
EXTT11=
EXTT12=
EXTT13=
PLAYORDER=
